<svg viewBox="0 0 24 24" xmlns="http://www.w3.org/2000/svg"><g fill="none"><path d="M20.977 10.888c0 4.908-4.02 8.889-8.977 8.889-4.958 0-8.977-3.981-8.977-8.889C3.023 5.98 7.043 2 12 2c4.956 0 8.977 3.98 8.977 8.888" fill="#FFCC4D"/><path d="M16.41 10.96a.21.21 0 0 0-.3-.016c-.018.016-1.853 1.61-4.11 1.61-2.252 0-4.092-1.594-4.11-1.61a.211.211 0 0 0-.3.016.314.314 0 0 0-.045.349c.06.12 1.52 2.913 4.455 2.913s4.395-2.794 4.455-2.913a.314.314 0 0 0-.045-.349z" fill="#664500"/><path d="m9.415 14.863-.863-1.233s-.305-.482-.792-.18c-.487.3-.182.782-.182.782l.986 1.878s.081.426-.515-.05c-.26-.209-.11-.091-.11-.091l-.247-.2-3.08-2.505s-.399-.416-.763.023c-.364.44.125.745.125.745l2.913 2.37c-.067.067-.27.297-.336.368l-3.118-2.533s-.399-.416-.762.023c-.365.44.124.745.124.745l3.117 2.534c-.058.078-.203.265-.257.341l-2.689-2.185s-.398-.416-.762.023c-.365.44.125.746.125.746l2.858 2.324c-.036.099-.204.359-.23.455l-2.06-1.673s-.398-.418-.762.023c-.365.44.125.745.125.745l3.327 2.704.221.181a3.47 3.47 0 0 0 4.693-.298 3.386 3.386 0 0 0 .02-4.656c-.409-.434-.763-.918-1.106-1.406zm12.45 2.731c-.363-.441-.761-.023-.761-.023l-2.06 1.673c-.027-.097-.195-.357-.23-.456l2.858-2.324s.49-.306.125-.745c-.364-.44-.762-.024-.762-.024l-2.689 2.186c-.054-.077-.2-.264-.257-.341l3.116-2.535s.49-.305.125-.745c-.363-.438-.76-.022-.76-.022l-3.12 2.533c-.065-.072-.268-.302-.336-.369l2.914-2.37s.488-.305.125-.744c-.365-.44-.763-.024-.763-.024l-3.08 2.505-.247.2s.556-.467-.11.09c-.667.558-.515.051-.515.051l.986-1.877s.305-.483-.182-.783c-.487-.301-.792.18-.792.18l-.862 1.233c-.344.488-.698.972-1.108 1.407a3.386 3.386 0 0 0 .019 4.658 3.47 3.47 0 0 0 4.695.296l.222-.18 3.327-2.705c-.003 0 .486-.306.122-.745z" fill="#F4900C"/><path d="M17.43 8.101c-.03-.067-.722-1.657-2.144-1.657-1.422 0-2.115 1.59-2.143 1.657a.258.258 0 0 0 .069.298.233.233 0 0 0 .293.007c.006-.005.607-.454 1.78-.454 1.167 0 1.767.443 1.781.454a.233.233 0 0 0 .293-.006.258.258 0 0 0 .07-.299zm-6.172 0c-.03-.067-.721-1.657-2.144-1.657-1.422 0-2.114 1.59-2.144 1.657a.258.258 0 0 0 .07.298.234.234 0 0 0 .293.007c.007-.005.607-.454 1.78-.454 1.168 0 1.768.443 1.781.454a.234.234 0 0 0 .293-.006.259.259 0 0 0 .07-.299z" fill="#664500"/><path d="M8.592 16.154s-2.515 1.84.47 4.144c.205.158.727.08.505-.105-.242-.202-2.668-2.164-.388-3.92 0 0-.37-.026-.587-.12zm7.638.054s2.515 1.841-.47 4.144c-.206.159-.728.081-.506-.104.243-.202 2.668-2.164.388-3.92 0 0 .37-.026.587-.12z" fill="#B55005"/></g></svg>